<svg xmlns="http://www.w3.org/2000/svg" xmlns:xlink="http://www.w3.org/1999/xlink" width="30.909" height="40" viewBox="0 0 30.909 40"><defs><style>.a{fill:rgba(0,0,0,0);}.b{fill:#5690ff;opacity:0.47;}.c{fill:url(#a);}</style><linearGradient id="a" y1="0.5" x2="1" y2="0.5" gradientUnits="objectBoundingBox"><stop offset="0" stop-color="#5690ff" stop-opacity="0.988"/><stop offset="1" stop-color="#0052e0"/></linearGradient></defs><rect class="a" width="30.909" height="40"/><path class="b" d="M29.194,18.315,22.162,13.7,2.89,1.892A17.415,17.415,0,0,1,6.236,7.438a18.394,18.394,0,0,1,1.051,4.1l14.45,9.015a1.174,1.174,0,0,1,.3,1.638l-.054.069h0l-.054.062-.062.062H21.83l-.1.077L7.774,30.923a.842.842,0,0,1-1.314-.692v-19.3a18.211,18.211,0,0,0-.935-3.492A16.324,16.324,0,0,0,.456.3L0,0V36.323a3.578,3.578,0,0,0,5.54,2.969L29.194,24.615a3.76,3.76,0,0,0,0-6.3Z"/><path class="c" d="M29.194,18.315,22.162,13.7a5.429,5.429,0,0,1,.773,7.692,5.344,5.344,0,0,1-.927.892h0l-.054.062-.062.062h0l-.1.077L11.745,28.377h0L7.882,30.985A.861.861,0,0,1,6.514,30.3V10.962a17.944,17.944,0,0,0-.989-3.523A16.324,16.324,0,0,0,.456.3L0,0V36.323a3.578,3.578,0,0,0,5.54,2.969L29.194,24.615a3.76,3.76,0,0,0,0-6.3Z"/></svg>